<svg xmlns="http://www.w3.org/2000/svg" xml:space="preserve" width="1080" height="1080"><circle r="35" style="stroke:#757575;stroke-width:0;stroke-dasharray:none;stroke-linecap:butt;stroke-dashoffset:0;stroke-linejoin:miter;stroke-miterlimit:4;fill:#3a3a3a;fill-rule:nonzero;opacity:1" transform="translate(540 540) scale(13.05)" vector-effect="non-scaling-stroke"/><path d="m543 518-3 3-22 40c-1 3-4 6-7 7-4 1-10-2-11-5l-24-42c-1-2-3-3-5-3q-22-5-40-15-19-9-34-25l-8-10q-5-5-7-10l-7-15c-15-47 11-91 51-114l16-8q64-26 129-1 9 3 21 10 18 11 32 27 18 21 21 48c4 27-7 52-24 72q-11 12-26 22-24 14-52 19z" style="stroke:none;stroke-width:1;stroke-dasharray:none;stroke-linecap:butt;stroke-dashoffset:0;stroke-linejoin:miter;stroke-miterlimit:4;fill:#ffe6a0;fill-rule:nonzero;opacity:1" transform="matrix(1.44 0 0 1.44 -193 -224)" vector-effect="non-scaling-stroke"/><path d="M580 614q20-5 40-7 17-2 42-2 41 0 83 9c7 1 10 9 7 15-5 10-17 4-25 2q-49-9-99-5-24 2-48 9v1h183q7 0 9 5c3 6 0 12-5 15H544l-2 2c-6 16-22 24-39 22l-11-3-11-8-7-11-3-2H254l-6-1c-3-3-5-7-4-11 2-8 7-9 15-8h177v-1l-29-7c-21-3-41-3-63-3q-35 1-65 8-5 2-7 1c-6-2-10-7-8-14 2-4 5-6 10-7l25-4q56-8 109-1l28 7 1-1h-1l-6-3-6-3-14-5-7-2-8-2q-30-7-67-6l-33 2c-5 0-8-1-10-4q-4-5-2-10 3-6 9-6c27-3 54-3 80 0q24 2 51 11l10 4 13 6 19 10v-1l-6-5-7-5-11-9-21-10-20-8q-19-6-39-8l-22-2h-25c-7-3-11-9-6-16q2-5 8-5l22 1q57 1 104 26 28 15 50 40l7 10c3 5 6 9 8 15a1 1 0 1 0 2 0q10-20 25-35 11-11 19-16l16-11 14-7q41-20 87-22l25-1 9 1c7 2 10 9 5 15-3 4-5 5-10 5h-17c-13 0-27 1-39 3q-18 3-29 8l-15 6-14 7c-10 5-22 13-29 19l-5 5h1c28-17 59-28 93-32 26-2 51-1 79 1 9 0 13 11 6 17q-3 3-8 3c-29-3-57-3-84 1-21 3-40 9-58 18z" style="stroke:none;stroke-width:1;stroke-dasharray:none;stroke-linecap:butt;stroke-dashoffset:0;stroke-linejoin:miter;stroke-miterlimit:4;fill:#ffe6a0;fill-rule:nonzero;opacity:1" transform="matrix(1.44 0 0 1.44 -193 -224)" vector-effect="non-scaling-stroke"/></svg>